<svg width="480" height="418" viewBox="0 0 480 418" fill="none" xmlns="http://www.w3.org/2000/svg">
<path d="M370.798 82.0038C385.379 82.0038 397.198 70.1863 397.198 55.6088C397.198 41.0313 385.379 29.2139 370.798 29.2139C356.218 29.2139 344.398 41.0313 344.398 55.6088C344.398 70.1863 356.218 82.0038 370.798 82.0038Z" fill="#FBED21"/>
<path d="M360.48 17.8166L370.8 0L381.06 17.8166H360.48Z" fill="#FBC121"/>
<path d="M333 65.8671L315.18 55.609L333 45.291V65.8671Z" fill="#FBC121"/>
<path d="M381.06 93.4023L370.8 111.219L360.48 93.4023H381.06Z" fill="#FBC121"/>
<path d="M408.602 45.291L426.362 55.609L408.602 65.8671V45.291Z" fill="#FBC121"/>
<path d="M338.099 31.7344L334.859 19.6768L346.919 22.9161L338.099 31.7344Z" fill="#FBC121"/>
<path d="M346.919 88.3031L334.859 91.5425L338.099 79.4248L346.919 88.3031Z" fill="#FBC121"/>
<path d="M403.441 79.4248L406.681 91.5425L394.621 88.3031L403.441 79.4248Z" fill="#FBC121"/>
<path d="M394.621 22.9161L406.681 19.6768L403.441 31.7344L394.621 22.9161Z" fill="#FBC121"/>
<path d="M210.539 275.227C290.639 273.067 321.839 298.682 349.859 301.862C377.879 305.041 403.079 318.238 399.059 326.637C399.059 326.637 336.659 332.216 297.839 331.436C259.019 330.656 206.279 322.258 183.659 324.657C161.039 327.057 103.439 327.057 82.2587 325.077C82.2587 325.077 66.6587 300.662 128.279 299.462C128.279 299.462 181.739 276.007 210.539 275.227Z" fill="#FFC56B"/>
<path d="M258.84 170.487C258.84 170.487 254.82 181.045 254.16 181.285C253.44 181.525 249 179.426 249 178.466C249 177.506 253.8 169.047 255.24 168.928C256.56 168.808 258.72 169.647 258.84 170.487Z" fill="#A47343"/>
<path d="M253.681 183.805C253.981 184.824 251.581 189.624 250.741 189.624C249.901 189.624 244.801 187.524 244.741 186.504C244.681 185.484 245.761 180.985 246.961 180.565C248.101 180.085 253.441 182.965 253.681 183.805Z" fill="#A47343"/>
<path d="M250.741 191.543C251.641 193.223 247.201 201.201 245.461 201.801C243.721 202.401 238.141 200.001 237.961 198.442C237.781 196.882 240.601 188.064 241.921 187.764C243.241 187.464 250.741 191.543 250.741 191.543Z" fill="#A47343"/>
<path d="M245.34 204.861C245.94 206.361 241.56 213.56 240.48 213.979C239.4 214.399 232.14 211.88 232.02 210.62C231.84 209.36 234.6 201.742 236.16 201.022C237.66 200.362 244.86 203.661 245.34 204.861Z" fill="#A47343"/>
<path d="M240.9 217.458C241.38 218.478 237.72 226.997 235.98 227.656C234.24 228.316 226.44 226.517 225.9 224.897C225.36 223.337 227.04 213.319 228.48 212.779C229.86 212.239 240.12 215.839 240.9 217.458Z" fill="#A47343"/>
<path d="M237.662 231.075C239.402 232.815 234.062 241.813 232.622 242.413C231.182 243.013 221.522 243.073 220.922 240.913C220.322 238.754 221.642 227.236 223.922 226.276C226.262 225.316 236.342 229.756 237.662 231.075Z" fill="#A47343"/>
<path d="M233.702 245.353C234.902 246.192 229.982 259.87 228.722 260.35C227.462 260.83 216.182 258.91 215.942 257.59C215.702 256.33 214.982 244.033 216.902 242.773C218.822 241.513 231.962 244.153 233.702 245.353Z" fill="#A47343"/>
<path d="M230.46 262.809C231.66 264.009 226.92 277.147 225.3 277.866C223.68 278.586 211.74 277.207 211.2 275.707C210.6 274.207 210 260.29 211.98 259.51C213.9 258.67 229.2 261.49 230.46 262.809Z" fill="#A47343"/>
<path d="M259.68 166.108C259.68 166.108 283.38 122.856 311.28 151.95L303.3 152.55L305.88 154.77L298.26 154.47L300.12 155.97L293.76 155.31L295.32 157.589L287.94 156.57L289.98 159.569L282 158.369L283.44 160.469C283.44 160.469 279.66 159.149 276.84 161.669C276.84 161.669 261.24 173.906 258.72 168.987C258.72 168.987 246.3 147.751 244.8 143.192L245.88 141.393L240.06 138.753L241.68 137.673L237.06 134.374H240.06L233.58 129.875L237.18 130.175L230.52 124.956C230.52 124.956 270.36 122.436 259.68 166.108Z" fill="#008446"/>
<path d="M258.481 166.527C258.481 166.527 256.501 114.457 212.461 146.911C212.461 146.911 220.141 148.531 220.921 147.991L218.041 150.93L225.301 150.21L223.201 151.83L230.401 152.55L227.821 154.17L234.901 153.93L232.801 156.089L241.921 154.709L239.821 157.109C239.821 157.109 249.121 155.849 249.961 159.389C249.961 159.389 211.381 164.248 213.901 185.484L220.741 180.864L219.301 185.364L225.721 179.605L224.641 182.244L230.701 178.105L228.961 181.404L235.021 175.705L234.541 178.945L240.301 173.066V176.785C240.301 176.785 246.481 170.486 248.281 170.246L248.161 172.286C248.161 172.286 255.121 165.507 257.761 168.327C257.761 168.327 260.821 173.846 258.721 178.285L261.061 177.925L259.081 185.244L261.661 184.284L259.921 191.182L261.901 189.863L260.941 194.782L263.221 194.542L261.841 201.141L264.781 199.101L263.401 207.079C263.401 207.079 281.701 197.481 271.261 170.846L273.481 172.886L275.041 170.186L280.861 178.765L281.641 176.185C281.641 176.185 285.181 182.724 285.121 182.664C285.061 182.604 285.961 180.924 285.961 180.924L289.801 186.263L291.181 184.644C291.181 184.644 293.461 189.263 294.181 189.503L294.961 186.863L298.141 192.982L298.801 189.083L303.361 195.802C303.361 195.802 307.681 146.671 258.481 166.527Z" fill="#00A951"/>
<path d="M266.7 166.288C268.62 168.807 268.14 172.347 265.68 174.266C263.16 176.186 259.62 175.706 257.7 173.247C255.78 170.727 256.26 167.188 258.72 165.268C261.18 163.348 264.78 163.828 266.7 166.288Z" fill="#7D4919"/>
<path d="M261.302 173.247C261.481 173.487 261.421 173.847 261.182 174.027C260.942 174.207 260.582 174.147 260.402 173.907C260.222 173.667 260.282 173.307 260.522 173.127C260.762 172.947 261.122 173.007 261.302 173.247Z" fill="#1A1A1A"/>
<path d="M262.38 170.487C262.62 170.787 262.56 171.207 262.26 171.447C261.96 171.687 261.54 171.627 261.3 171.327C261.06 171.027 261.12 170.607 261.42 170.367C261.72 170.127 262.14 170.187 262.38 170.487Z" fill="#1A1A1A"/>
<path d="M265.02 172.046C265.26 172.406 265.2 172.886 264.9 173.126C264.54 173.366 264.06 173.306 263.82 173.006C263.58 172.646 263.64 172.166 263.94 171.926C264.24 171.686 264.72 171.746 265.02 172.046Z" fill="#1A1A1A"/>
<path d="M259.44 172.767C257.22 175.526 253.2 175.946 250.5 173.786C247.74 171.567 247.32 167.548 249.48 164.848C251.7 162.089 255.72 161.669 258.42 163.828C261.18 165.988 261.6 170.007 259.44 172.767Z" fill="#905D2C"/>
<path d="M257.819 169.648C257.639 169.888 257.219 169.948 256.979 169.768C256.739 169.588 256.679 169.168 256.859 168.928C257.039 168.688 257.459 168.628 257.699 168.808C257.939 169.048 257.999 169.408 257.819 169.648Z" fill="#1A1A1A"/>
<path d="M258.358 172.946C258.058 173.306 257.578 173.366 257.218 173.066C256.858 172.766 256.798 172.286 257.098 171.926C257.398 171.566 257.878 171.506 258.238 171.806C258.598 172.106 258.658 172.586 258.358 172.946Z" fill="#1A1A1A"/>
<path d="M255.658 173.007C255.418 173.307 254.998 173.307 254.758 173.127C254.458 172.887 254.458 172.467 254.638 172.227C254.878 171.927 255.298 171.927 255.538 172.107C255.838 172.287 255.898 172.707 255.658 173.007Z" fill="#1A1A1A"/>
<path d="M155.461 126.515C155.461 126.515 159.481 137.073 160.141 137.313C160.861 137.553 165.301 135.453 165.301 134.493C165.301 133.534 160.501 125.075 159.061 124.955C157.741 124.895 155.581 125.735 155.461 126.515Z" fill="#BB8D5D"/>
<path d="M160.678 139.833C160.378 140.853 162.778 145.652 163.618 145.652C164.518 145.652 169.558 143.552 169.618 142.532C169.678 141.512 168.598 137.013 167.398 136.593C166.258 136.173 160.918 139.053 160.678 139.833Z" fill="#BB8D5D"/>
<path d="M163.557 147.632C162.657 149.311 167.097 157.29 168.837 157.89C170.577 158.489 176.157 156.09 176.337 154.53C176.517 152.971 173.697 144.152 172.377 143.852C171.057 143.492 163.557 147.632 163.557 147.632Z" fill="#BB8D5D"/>
<path d="M168.959 160.949C168.359 162.449 172.739 169.647 173.819 170.067C174.899 170.487 182.159 167.968 182.279 166.708C182.459 165.448 179.699 157.83 178.139 157.11C176.639 156.39 169.439 159.749 168.959 160.949Z" fill="#BB8D5D"/>
<path d="M173.398 173.486C172.918 174.506 176.578 183.024 178.318 183.684C180.058 184.344 187.858 182.544 188.398 180.925C188.938 179.365 187.258 169.347 185.818 168.807C184.438 168.327 174.238 171.866 173.398 173.486Z" fill="#BB8D5D"/>
<path d="M176.638 187.164C174.898 188.904 180.238 197.902 181.678 198.502C183.118 199.102 192.778 199.162 193.378 197.002C193.978 194.843 192.658 183.325 190.378 182.365C188.098 181.405 178.018 185.844 176.638 187.164Z" fill="#BB8D5D"/>
<path d="M180.597 201.441C179.397 202.28 184.317 215.958 185.577 216.438C186.837 216.918 198.117 214.998 198.357 213.678C198.597 212.419 199.317 200.121 197.397 198.861C195.477 197.601 182.337 200.181 180.597 201.441Z" fill="#BB8D5D"/>
<path d="M183.837 218.837C182.637 220.037 187.377 233.174 188.997 233.894C190.617 234.614 202.557 233.234 203.097 231.735C203.697 230.235 204.297 216.318 202.317 215.538C200.457 214.698 185.157 217.577 183.837 218.837Z" fill="#BB8D5D"/>
<path d="M187.498 236.234C186.718 237.074 190.558 251.111 192.238 251.531C193.918 251.951 206.938 251.231 207.418 249.912C207.898 248.592 208.078 234.854 206.878 233.655C205.738 232.395 189.178 234.375 187.498 236.234Z" fill="#BB8D5D"/>
<path d="M190.379 253.811C188.579 255.25 191.999 269.168 193.379 269.887C194.759 270.667 210.839 270.367 211.739 268.808C212.699 267.248 212.699 252.731 211.079 251.651C209.459 250.571 191.999 252.491 190.379 253.811Z" fill="#BB8D5D"/>
<path d="M192.598 272.527C190.978 273.547 193.318 285.725 194.878 286.924C196.438 288.124 214.558 288.004 215.578 286.324C216.598 284.645 215.338 272.167 213.238 271.207C211.138 270.248 196.078 270.248 192.598 272.527Z" fill="#BB8D5D"/>
<path d="M157.379 123.756C157.379 123.756 127.739 65.6869 180.239 56.8086L174.959 65.9868L179.339 64.7871L173.339 72.8855L176.339 71.9857L170.939 78.4045H174.539L167.939 85.7831H172.739L165.539 93.5816H168.959C168.959 93.5816 164.699 96.761 165.359 101.68C165.359 101.68 167.099 127.835 159.899 126.935C159.899 126.935 127.439 124.716 121.319 122.916L120.119 120.396L112.919 124.836V122.256L105.839 124.836L108.119 121.536L98.3387 125.315L101.339 121.536L90.7188 124.956C90.7188 125.016 117.599 79.6042 157.379 123.756Z" fill="#00A951"/>
<path d="M157.021 125.375C157.021 125.375 98.6408 88.7821 101.341 161.068C101.341 161.068 108.841 153.87 108.841 152.61L109.921 157.889L114.481 149.43L114.661 152.97L120.841 145.651L120.661 149.67L125.641 141.752L126.481 145.651L131.761 134.673L132.841 138.693C132.841 138.693 138.361 127.535 142.861 129.334C142.861 129.334 119.521 175.106 144.541 188.123V177.205L148.381 182.124L146.881 170.846L148.981 174.026V164.368L151.261 168.747L149.581 157.889L152.761 160.828L150.601 150.15L154.681 152.91C154.681 152.91 152.401 141.452 153.481 139.352L155.581 140.972C155.581 140.972 153.361 128.315 158.401 127.535C158.401 127.535 166.681 128.255 170.041 133.893L171.421 131.074L177.901 138.633L178.801 135.093L185.041 142.112V138.932L189.661 143.612L191.101 140.912L197.281 147.331V142.772L205.021 150.21C205.021 150.21 208.201 123.096 171.241 114.637L175.141 113.737L173.341 110.018H187.081L184.861 107.259C184.861 107.259 194.581 108.218 194.461 108.278C194.341 108.338 193.201 106.059 193.201 106.059L201.901 105.819L201.181 103.119C201.181 103.119 207.901 104.079 208.741 103.479L206.461 100.66L215.521 101.74L211.741 98.1403H222.481C222.361 98.1403 171.841 56.8682 157.021 125.375Z" fill="#40C953"/>
<path d="M154.86 125.315C155.88 128.615 154.02 132.094 150.72 133.114C147.42 134.133 143.94 132.274 142.92 128.974C141.9 125.675 143.76 122.196 147.06 121.176C150.36 120.156 153.84 122.016 154.86 125.315Z" fill="#7D4919"/>
<path d="M146.702 130.355C146.822 130.655 146.642 131.014 146.282 131.134C145.982 131.254 145.622 131.074 145.502 130.714C145.382 130.415 145.562 130.055 145.922 129.935C146.282 129.875 146.582 129.995 146.702 130.355Z" fill="#1A1A1A"/>
<path d="M148.802 127.895C148.922 128.315 148.682 128.675 148.322 128.795C147.902 128.915 147.542 128.675 147.422 128.315C147.302 127.895 147.542 127.535 147.902 127.415C148.262 127.295 148.682 127.535 148.802 127.895Z" fill="#1A1A1A"/>
<path d="M150.899 130.535C151.019 130.955 150.779 131.434 150.359 131.554C149.939 131.674 149.459 131.434 149.339 131.015C149.219 130.595 149.459 130.115 149.879 129.995C150.299 129.875 150.779 130.115 150.899 130.535Z" fill="#1A1A1A"/>
<path d="M165.061 115.777C168.481 115.597 171.481 118.177 171.661 121.656C171.841 125.076 169.261 128.075 165.781 128.255C162.361 128.435 159.361 125.856 159.181 122.376C159.001 118.957 161.641 116.017 165.061 115.777Z" fill="#7D4919"/>
<path d="M168.061 124.956C168.421 124.956 168.661 125.196 168.721 125.496C168.721 125.856 168.481 126.096 168.181 126.156C167.821 126.156 167.581 125.916 167.521 125.616C167.461 125.256 167.701 124.956 168.061 124.956Z" fill="#1A1A1A"/>
<path d="M166.2 122.316C166.62 122.316 166.98 122.616 166.98 123.036C166.98 123.456 166.68 123.816 166.26 123.816C165.84 123.816 165.48 123.516 165.48 123.096C165.48 122.676 165.78 122.316 166.2 122.316Z" fill="#1A1A1A"/>
<path d="M169.259 120.877C169.739 120.877 170.099 121.177 170.159 121.657C170.159 122.137 169.859 122.497 169.379 122.557C168.899 122.557 168.539 122.257 168.479 121.777C168.419 121.297 168.779 120.877 169.259 120.877Z" fill="#1A1A1A"/>
<path d="M166.441 126.335C167.581 129.995 165.481 133.954 161.821 135.094C158.161 136.233 154.201 134.134 153.061 130.474C151.921 126.815 154.021 122.856 157.681 121.716C161.401 120.576 165.301 122.616 166.441 126.335Z" fill="#905D2C"/>
<path d="M162.602 125.915C162.722 126.275 162.542 126.635 162.182 126.755C161.822 126.875 161.462 126.695 161.342 126.335C161.222 125.975 161.402 125.615 161.762 125.495C162.182 125.375 162.542 125.555 162.602 125.915Z" fill="#1A1A1A"/>
<path d="M165.961 127.355C166.081 127.835 165.841 128.315 165.361 128.435C164.881 128.555 164.401 128.315 164.281 127.835C164.161 127.355 164.401 126.875 164.881 126.755C165.301 126.695 165.781 126.935 165.961 127.355Z" fill="#1A1A1A"/>
<path d="M164.341 129.874C164.461 130.234 164.221 130.654 163.861 130.774C163.501 130.894 163.081 130.654 162.961 130.294C162.841 129.934 163.081 129.514 163.441 129.394C163.801 129.334 164.221 129.514 164.341 129.874Z" fill="#1A1A1A"/>
</svg>
