<svg width="447" height="260" viewBox="0 0 447 260" fill="none" xmlns="http://www.w3.org/2000/svg">
<path d="M0 4C0 1.79086 1.79086 0 4 0H447V260H4.00001C1.79087 260 0 258.209 0 256V4Z" fill="#D7DDDD"/>
<path d="M246.784 113.749H238.11V112.858C238.11 108.877 234.878 105.646 230.897 105.646H217.101C213.118 105.646 209.889 108.877 209.889 112.858V113.749H201.213C197.23 113.749 194 116.979 194 120.962V147.143C194 151.124 197.23 154.355 201.213 154.355H246.787C250.77 154.355 254 151.124 254 147.143V120.962C253.997 116.977 250.767 113.749 246.784 113.749ZM223.997 146.873C216.483 146.873 210.373 140.763 210.373 133.249C210.373 125.737 216.483 119.625 223.997 119.625C231.511 119.625 237.621 125.735 237.621 133.249C237.621 140.763 231.509 146.873 223.997 146.873ZM231.209 133.249C231.209 137.223 227.972 140.462 223.997 140.462C220.022 140.462 216.784 137.223 216.784 133.249C216.784 129.274 220.022 126.037 223.997 126.037C227.972 126.037 231.209 129.274 231.209 133.249Z" fill="#E9E9E9"/>
</svg>
