<svg width="80" height="80" viewBox="0 0 80 80" fill="none" xmlns="http://www.w3.org/2000/svg">
<circle cx="40" cy="40" r="40" fill="#D7DDDD"/>
<g clip-path="url(#clip0)">
<path d="M39.7859 39.4511C41.7712 39.4511 43.4903 38.739 44.895 37.3342C46.2996 35.9295 47.0117 34.2109 47.0117 32.2253C47.0117 30.2405 46.2996 28.5216 44.8947 27.1165C43.4899 25.712 41.771 25 39.7859 25C37.8003 25 36.0816 25.712 34.677 27.1167C33.2723 28.5213 32.5601 30.2402 32.5601 32.2253C32.5601 34.2109 33.2723 35.9297 34.6772 37.3344C36.0821 38.7388 37.801 39.4511 39.7859 39.4511Z" fill="#E9E9E9"/>
<path d="M52.4294 48.0685C52.3889 47.484 52.307 46.8463 52.1864 46.1729C52.0646 45.4945 51.9078 44.8532 51.7201 44.267C51.5263 43.6612 51.2626 43.0629 50.9367 42.4896C50.5984 41.8945 50.201 41.3763 49.7552 40.9499C49.2889 40.5038 48.7181 40.1451 48.058 39.8835C47.4002 39.6233 46.6712 39.4914 45.8914 39.4914C45.5852 39.4914 45.289 39.6171 44.717 39.9895C44.365 40.2191 43.9532 40.4846 43.4937 40.7782C43.1007 41.0286 42.5683 41.2632 41.9107 41.4756C41.2691 41.6832 40.6178 41.7885 39.9748 41.7885C39.3319 41.7885 38.6807 41.6832 38.0385 41.4756C37.3816 41.2634 36.8492 41.0288 36.4567 40.7784C36.0014 40.4875 35.5894 40.222 35.2322 39.9893C34.6609 39.6169 34.3645 39.4912 34.0582 39.4912C33.2782 39.4912 32.5494 39.6233 31.8919 39.8837C31.2322 40.1449 30.6612 40.5036 30.1945 40.9501C29.7488 41.3767 29.3513 41.8947 29.0134 42.4896C28.6877 43.0629 28.4241 43.661 28.23 44.2673C28.0425 44.8534 27.8857 45.4945 27.764 46.1729C27.6434 46.8454 27.5614 47.4833 27.5209 48.0692C27.4811 48.6432 27.4609 49.239 27.4609 49.8407C27.4609 51.4068 27.9588 52.6745 28.9404 53.6095C29.91 54.5321 31.1929 55.0002 32.7529 55.0002H47.1981C48.7582 55.0002 50.0406 54.5324 51.0104 53.6095C51.9923 52.6752 52.4901 51.4072 52.4901 49.8405C52.4899 49.236 52.4695 48.6398 52.4294 48.0685Z" fill="#E9E9E9"/>
</g>
<defs>
<clipPath id="clip0">
<rect width="30" height="30" fill="white" transform="translate(25 25)"/>
</clipPath>
</defs>
</svg>
