<svg width="495" height="444" viewBox="0 0 495 444" fill="none" xmlns="http://www.w3.org/2000/svg">
<path d="M120.807 75.927C121.334 75.7413 121.679 75.6667 122.238 75.6667C122.899 75.6667 123.308 75.703 123.93 75.927C124.776 76.2318 125.361 76.838 125.622 77.6188C126.272 79.3106 126.096 80.727 126.272 81.7832C126.663 84.1257 126.851 85.2492 127.591 87.476C128.545 90.3436 131.219 95.9055 133.17 101.304C135.607 108.046 136.341 110.262 138.956 117.157C139.831 120.087 140.66 122.016 141.441 124.972C141.91 126.748 142.49 128.789 142.981 130.559C143.634 132.914 144.041 134.376 144.733 136.719C145.853 140.516 146.441 142.731 147.541 146.534C148.337 149.283 148.502 150.522 149.323 153.264C149.596 154.176 149.906 155.287 150.196 156.357C150.472 157.372 151.965 157.351 152.217 156.331C152.48 155.262 152.764 154.158 153.018 153.264C153.82 150.449 154.37 148.162 155.416 145.428C156.883 141.594 157.454 140.618 159.131 136.871C160.189 134.506 160.717 133.238 161.902 130.933C162.828 129.133 163.373 127.927 164.399 126.182C166.2 123.121 167.144 121.378 169.402 118.636C171.642 115.918 173.216 114.292 175.894 112.004C177.602 110.545 178.583 109.822 180.457 108.583C182.676 107.115 183.987 106.351 186.447 105.337C188.99 104.288 190.363 103.915 193.05 103.329C194.112 103.098 194.94 102.953 196.021 102.842C197.285 102.714 198.145 102.722 199.41 102.842C200.541 102.95 201.034 103.073 202.141 103.329C203.535 103.652 204.404 104.054 205.737 104.573C207.22 105.15 207.67 105.387 209.052 106.174C210.363 106.921 211.348 107.555 212.554 108.461C214.794 110.146 216.606 111.633 218.478 113.719C220.849 116.359 221.564 117.568 223.49 120.547C224.973 122.839 225.615 124.399 226.82 126.848C228.398 130.058 229.153 131.905 230.37 135.269C231.521 138.45 232.05 140.208 233.018 143.426L233.039 143.496C234.151 147.193 234.753 149.491 235.791 153.21C236.537 155.885 237.373 159.325 238 161.999C238.242 163.033 239.75 163.044 240.008 162.014C240.887 158.504 242.156 153.62 243.125 150.644C244.47 146.515 244.661 146.549 246.27 142.516L246.404 142.179C247.402 139.677 247.999 138.179 249.163 135.64C250.299 133.16 250.987 131.778 252.308 129.392L252.381 129.26C254.049 126.247 254.975 124.574 256.92 121.677C259.05 118.504 260.415 116.975 262.717 113.924C263.721 112.593 264.412 111.593 265.45 110.288C266.349 109.157 267.159 108.21 268.074 107.091C268.988 105.973 268.68 106.325 269.61 105.219C270.56 104.088 271.66 102.905 272.634 101.795C273.441 100.875 273.893 100.335 274.73 99.4425C275.714 98.3943 276.439 97.6948 277.483 96.7061C278.475 95.7656 279.344 95.0044 280.395 94.1298C281.286 93.3886 281.327 93.3184 282.267 92.6416C283.16 91.9996 283.712 91.7089 284.652 91.1374C285.546 90.5935 286.441 90.0947 287.38 89.6325C288.566 89.0489 289.049 88.8312 290.309 88.4322C291.355 88.1009 292.14 87.9589 293.232 87.8523C294.223 87.7557 294.173 87.7557 295.189 87.7557H296.675H298.282C298.841 87.7557 299.368 87.8025 299.925 87.8523C300.491 87.903 300.799 87.9795 301.35 88.1181L301.452 88.1435C302.022 88.2867 302.44 88.3917 303.005 88.6134C303.683 88.879 304.067 89.0549 304.709 89.3986C305.231 89.6786 305.512 89.8802 306.013 90.1959C306.634 90.5863 306.91 90.8155 307.511 91.2348C308.063 91.6193 308.506 91.9973 309.014 92.4301L309.057 92.467C309.605 92.9331 309.783 93.117 310.278 93.6388C310.748 94.1351 310.941 94.3404 311.401 94.8468C311.957 95.4594 312.213 95.7954 312.73 96.4414C313.487 97.3879 313.809 97.9823 314.445 99.0144C314.756 99.519 314.892 99.7539 315.182 100.271C315.95 101.639 316.299 102.728 316.924 104.167L316.988 104.312C317.713 105.979 318.14 106.961 318.746 108.722C319.076 109.679 319.243 110.222 319.527 111.194C319.925 112.555 320.113 113.328 320.438 114.708C320.842 116.425 321.01 117.401 321.349 119.133C321.726 121.06 321.907 122.146 322.26 124.078C322.826 127.177 323.153 128.913 323.692 132.016C324.22 135.062 324.46 136.78 324.993 139.825C325.527 142.878 325.868 144.583 326.424 147.633C326.935 150.428 327.213 151.996 327.726 154.791C328.23 157.536 328.5 159.077 329.027 161.818C329.614 164.872 329.949 166.583 330.589 169.626C331.221 172.631 331.646 174.3 332.281 177.304C332.699 179.284 332.91 180.399 333.322 182.38C333.723 184.312 333.966 185.392 334.363 187.325C334.78 189.356 335.007 190.496 335.404 192.531C335.662 193.851 335.809 194.591 336.055 195.914C336.319 197.335 336.487 198.105 336.705 199.558C336.914 200.944 337.048 201.731 337.276 203.045C337.505 204.358 337.662 204.946 337.91 206.956C338.183 208.159 338.346 209.523 338.592 211.049C338.848 212.634 339.065 213.547 339.308 215.175C339.52 216.596 339.617 217.397 339.829 218.818C340.025 220.141 340.073 220.802 340.349 222.202C340.566 223.304 340.844 224.181 341.13 225.455C341.46 226.924 341.626 227.752 341.911 229.229C342.126 230.345 342.22 230.976 342.431 232.092C342.721 233.62 342.887 234.476 343.212 235.997C343.408 236.913 343.518 237.427 343.733 238.339C343.973 239.359 344.113 239.93 344.383 240.942C344.67 242.014 344.828 242.572 345.13 243.64C345.489 244.91 345.66 245.76 346.119 246.997C346.367 247.665 346.445 247.874 346.469 247.939C346.477 247.958 346.483 247.977 346.489 247.997C346.555 248.207 346.973 249.53 347.374 250.596C347.902 251.999 347.929 252.35 348.103 253.037C348.276 253.724 348.454 255.456 348.329 256.289C348.161 257.412 348.086 257.589 347.775 258.605C347.575 259.257 347.415 259.691 347.074 260.282C346.708 260.917 346.597 261.209 346.132 261.775C345.676 262.33 345.499 262.687 344.944 263.144C344.204 263.753 343.904 263.946 343.131 264.374C342.557 264.691 341.77 265.029 340.906 265.242C340.306 265.362 340.15 265.416 339.203 265.472C337.681 265.562 336.889 265.549 335.854 265.472C334.987 265.407 334.205 265.2 333.362 264.989C332.17 264.691 331.335 264.386 330.253 263.805C328.577 262.904 327.676 262.232 326.215 261.014C324.89 259.909 324.311 259.203 323.127 257.948C322.56 257.346 322.221 256.89 321.69 256.256C320.73 255.11 320.289 254.44 319.469 253.19C318.37 251.513 317.789 250.551 316.869 248.771C316.148 247.377 315.778 246.572 315.13 245.144C314.35 243.424 313.924 242.347 313.168 240.616C312.503 239.093 312.158 238.338 311.589 236.777C311.187 235.675 310.97 235.046 310.605 233.93C310.306 233.014 310.193 232.49 309.897 231.572C309.636 230.761 309.491 230.306 309.246 229.49C308.867 228.226 308.681 227.618 308.289 226.358C308.022 225.496 307.86 224.943 307.618 224.118L307.566 223.943C307.199 222.689 306.95 221.92 306.614 220.657C306.287 219.43 306.107 218.735 305.792 217.503C305.432 216.093 305.33 215.351 305.043 213.925C304.655 212 304.463 210.87 304.171 208.928C303.92 207.257 303.845 206.311 303.65 204.633C303.067 199.61 302.788 196.788 302.349 191.75C302.066 188.499 301.946 186.674 301.698 183.421C301.543 181.388 301.592 181.728 301.476 179.693C301.415 178.626 301.354 177.244 301.308 176.176C301.25 174.855 301.223 173.902 301.178 172.745C301.079 170.204 301.122 168.481 301.004 165.94C300.872 163.093 300.763 161.502 300.644 158.655C300.485 154.896 300.385 152.58 300.235 148.821C300.082 145.007 300.002 142.946 299.874 139.131C299.792 136.692 299.684 135.577 299.489 132.663C299.178 128.017 299.081 125.521 298.662 120.846C298.46 118.592 298.313 116.538 298.157 113.75C298.102 112.769 298.026 110.453 297.099 108.259C296.724 107.37 296.03 106.527 295.771 106.273C295.452 105.962 294.967 105.524 294.473 105.403C293.634 105.197 292.817 105.385 292.191 105.758C291.815 105.982 291.243 106.302 290.171 107.231C289.421 107.913 289.017 108.231 287.575 109.729C285.659 111.719 284.572 113.051 283.07 114.741C281.568 116.43 280.285 118.237 279.387 119.504C278.498 120.757 276.739 123.567 275.738 125.366C274.927 126.824 274.215 127.965 272.922 130.234C271.975 131.895 271.61 132.642 270.641 134.404C269.49 136.495 268.82 137.647 267.759 139.905C266.999 141.376 266.751 142.09 266.2 143.422C265.59 144.896 264.886 146.922 264.577 147.787C264.114 149.089 264.147 149.161 263.593 150.644C262.565 153.399 262.035 155.553 261.409 157.356C260.691 159.424 259.97 162.501 259.502 164.233C258.991 165.932 258.249 171.197 257.855 172.887C257.569 174.114 257.107 176.892 256.801 179.387C256.508 181.777 256.281 183.109 256.02 185.503C255.709 188.353 255.39 192.767 255.37 193.038C255.369 193.047 255.369 193.055 255.369 193.064C255.356 193.336 255.146 197.982 254.979 200.99C254.796 204.278 254.806 206.012 254.979 209.318C255.142 212.444 255.699 217.284 255.709 217.373L255.709 217.375C255.72 217.463 256.593 224.579 255.629 228.969C255.313 230.41 254.577 232.533 254.471 232.837C254.462 232.862 254.453 232.885 254.442 232.91C254.333 233.149 253.705 234.518 253.157 235.346C251.966 237.143 251.034 238.036 249.253 239.25C247.637 240.352 246.117 240.807 244.746 241.182C243.266 241.588 241.65 241.657 239.659 241.454C238.375 241.322 237.595 241.182 236.323 240.744C234.937 240.347 233.737 239.555 233.41 239.349C232.695 238.897 231.628 237.935 230.421 236.694C229.719 235.97 229.424 235.693 228.863 234.855C228.294 234.005 227.947 233.417 227.507 232.493C226.743 230.891 226.447 230.225 225.806 228.57C224.825 226.037 224.386 223.974 223.666 221.355C222.319 216.453 221.916 213.827 220.785 208.872C219.935 205.146 219.28 202.983 218.464 199.25C217.91 196.719 217.519 195.254 216.996 192.715C216.598 190.782 216.316 189.522 215.937 187.585C215.492 185.306 215.277 184.129 214.896 181.729C214.605 179.894 214.108 176.936 213.649 173.894L213.563 173.322C213.078 170.107 212.788 168.187 212.294 164.811C211.885 162.023 211.776 160.444 211.383 157.654C211.01 155.006 210.741 153.53 210.341 150.886C209.927 148.143 209.761 146.881 209.3 143.859C208.883 141.117 208.611 139.661 208.099 136.856C207.738 134.88 207.23 133.254 206.396 130.888C205.902 129.485 205.361 128.224 204.485 126.551C203.426 124.527 202.893 123.404 201.735 121.796L201.665 121.711C200.647 120.483 199.92 119.606 198.419 118.756C197.514 118.3 196.562 118.062 195.376 118.092C194.339 118.118 193.438 118.331 192.456 118.662C191.141 119.105 190.727 119.315 189.524 120.006C188.338 120.688 187.805 121.168 186.656 122.126C185.149 123.483 184.429 124.269 183.143 125.77C180.478 128.88 179.328 130.949 177.357 134.492L177.286 134.619C175.275 138.236 174.457 140.431 172.862 144.249C171.002 148.701 170.041 151.238 168.567 155.832C166.944 160.891 166.139 163.774 165.054 168.976C163.93 174.358 163.606 177.439 162.971 182.9C162.195 189.583 161.274 193.362 161.67 200.079C161.862 203.327 162.166 205.148 162.699 208.338L162.711 208.407C163.173 211.17 163.594 212.688 164.143 215.435C164.66 218.025 164.924 219.482 165.444 222.072C166.087 225.277 166.489 227.066 167.136 230.271C167.812 233.622 168.166 235.506 168.828 238.86C169.589 242.722 170.054 244.881 170.78 248.75C171.645 253.365 172.174 255.948 172.862 260.593C173.395 264.191 173.561 266.226 174.033 269.832C174.525 273.595 175.099 275.675 175.334 279.463C175.536 282.709 175.954 284.598 175.334 287.791C175.053 289.244 174.805 290.047 174.293 291.435C174.104 291.949 174.014 292.246 173.773 292.737C173.511 293.269 173.33 293.551 172.992 294.038C172.54 294.69 172.311 295.073 171.778 295.662C171.104 296.408 170.67 296.814 169.869 297.422C169.035 298.054 168.51 298.307 167.536 298.688C166.847 298.958 166.461 299.084 165.746 299.272C165.34 299.378 165.153 299.437 164.676 299.536C163.775 299.721 163.618 299.768 162.538 299.918L162.503 299.921C161.55 300.004 161.258 300.029 160.271 299.959C159.411 299.899 159.22 299.869 158.287 299.775C157.441 299.654 157.007 299.547 156.427 299.288C155.816 299.053 155.562 298.891 155.215 298.696C154.6 298.352 154.252 298.114 153.471 297.552C152.69 296.989 152.228 296.447 151.519 295.73C150.269 294.465 149.581 293.677 148.786 292.086C148.419 291.352 148.275 290.909 148.005 290.134C147.326 288.181 147.237 287.568 146.87 285.042L146.834 284.798C145.793 277.641 145.575 272.749 144.882 265.017C144.268 258.161 144.143 254.298 143.451 247.449C142.27 235.763 139.44 217.67 139.417 217.518C139.416 217.513 139.417 217.521 139.416 217.516C139.395 217.364 135.289 188.446 131.738 169.496C130.498 162.876 127.718 149.524 127.704 149.455L127.703 149.452L124.061 131.371L124.06 131.365C124.037 131.258 122.229 122.724 120.807 114.448C119.979 108.995 119.158 100.577 119.117 100.15C119.115 100.136 119.114 100.126 119.114 100.112L118.465 88.299L118.464 88.2823C118.457 88.0977 118.341 84.6978 118.594 81.9134C118.736 80.3527 118.594 80.4819 119.245 78.1394C119.375 77.749 119.836 76.2688 120.807 75.927Z" fill="#F35757"/>
<path d="M160.471 31.7981C163.769 29.8889 169.249 27.9496 169.368 27.9076L169.375 27.905C169.49 27.8636 171.435 27.1709 171.856 27.6504C172.199 28.0403 172.145 28.6914 171.856 29.2077C171.362 30.0911 170.694 30.9765 170.089 31.7981C169.55 32.5308 169.382 32.6911 168.618 33.6454C167.637 34.8718 166.782 35.7436 165.621 36.8019C164.171 38.1243 163.64 38.6835 162.364 39.8366C160.485 41.5354 159.321 42.7485 158.355 43.5554C156.593 45.0274 155.269 46.2966 153.767 47.7802C152.717 48.8161 151.984 49.5027 150.831 51.1283C149.228 53.3882 148.426 55.581 147.935 57.2119C147.579 58.3968 147.365 60.0086 147.603 60.9375C147.84 61.8663 148.39 62.8359 148.887 63.427C149.28 63.8936 149.648 64.2776 150.314 64.8262C151.041 65.4246 151.768 65.8793 152.611 66.4301C153.731 67.0966 153.914 67.2583 155.163 67.9012C156.133 68.4003 157.392 68.9032 158.598 69.3159C159.928 69.771 160.58 69.9571 161.825 70.2408C162.565 70.4095 163.801 70.6701 165.14 70.8492C167.393 71.1504 168.699 71.1478 170.958 70.9031C171.815 70.8103 172.546 70.6738 173.393 70.5152L173.445 70.5055C174.753 70.2607 175.594 70.1032 176.887 69.7394C178.366 69.3234 179.235 69.0863 180.697 68.6152C182.232 68.1208 183.007 67.8534 184.522 67.302C186.18 66.6986 187.004 66.3734 188.636 65.7012C191.025 64.7169 192.325 63.979 194.596 62.7473C195.499 62.2578 196.634 61.5194 197.494 60.9588C199.264 59.8055 200.512 58.9612 201.76 58.0807C203.807 56.6377 204.993 55.7018 206.972 54.2013C208.364 53.0908 209.528 52.2291 210.984 51.0059C212.401 49.8163 214.071 48.5312 216.198 46.7805C217.758 45.4967 219.57 44.043 221.963 42.2431C224.15 40.5988 225.532 39.5871 227.765 38.0072C231.203 35.5753 232.847 34.4727 236.362 32.1517C238.564 30.697 239.678 29.9695 241.941 28.611L242.53 28.2571C245.315 26.5854 245.652 26.3832 247.818 25.1324C249.579 24.1155 249.592 24.0762 251.36 23.0183C253.129 21.9604 252.978 22.0189 254.758 20.8277C255.846 20.1003 258.18 18.6377 259.41 17.81C260.869 16.8289 262.206 15.9759 263.851 15.0447C265.797 13.9427 267.792 12.7794 270.025 11.6846C271.098 11.1583 272.721 10.3968 274.177 9.69428C275.633 8.99176 277.352 8.34564 279.05 7.73639C280.823 7.09997 281.178 6.94997 283.18 6.35662C285.795 5.58176 286.599 5.41241 288.617 4.90275C290.89 4.3288 291.227 4.29348 293.193 3.82363C295.344 3.30929 296.866 3.06957 299.002 2.61918C301.816 2.02589 304.231 1.56217 306.917 1.18852C309.907 0.772662 311.924 0.641744 314.084 0.353848C315.461 0.201197 316.948 0.187387 319.312 0.0564785C322.315 -0.109836 325.555 0.123042 328.605 0.342281L328.619 0.343295C332.663 0.634004 332.884 0.800085 336.86 1.59857C339.848 2.11704 344.995 3.79717 345.644 4.01036C346.997 4.4542 348.904 5.13641 350.337 5.84362C351.221 6.27958 352.777 7.01189 354.14 8.01887C355.477 9.00678 357.176 10.3413 358.405 11.615C359.982 13.249 360.394 14.2164 360.736 15.0186L360.747 15.0454C361.353 16.4678 361.69 19.0819 361.527 20.4313C361.339 21.988 360.953 22.8968 360.326 24.2195L360.23 24.4229C359.363 26.2537 359.34 26.3017 358.351 27.9735C357.439 29.2453 356.911 29.9945 356.569 30.4363C355.936 31.254 355.639 31.9168 354.553 33.2877L354.402 33.4675C353.19 34.9139 352.8 35.38 351.124 36.7838C348.99 38.5716 346.617 40.1041 344.262 41.3832C341.477 42.8954 340.729 43.1727 336.773 44.9721C333.991 46.238 332.418 46.8955 329.674 47.8189C326.814 48.7815 324.764 49.3316 322.786 49.9207C320.191 50.6933 318.809 51.0372 316.167 51.5883C313.753 51.962 311.684 52.3917 309.872 51.7795C309.374 51.611 309.113 51.4056 308.956 51.2424C308.356 50.619 309.879 49.9264 311.369 48.4948C312.974 46.9523 313.421 46.6162 314.289 45.8797C315.536 44.8205 316.205 44.2961 317.553 43.3937C319.486 42.0993 319.264 42.2068 320.8 41.3738C322.883 40.244 323.533 39.782 326.083 38.804C327.252 38.3556 328.216 37.9951 329.327 37.7024C332.243 36.9337 331.963 37.0072 333.939 36.5744C334.673 36.4137 336.401 36.0737 337.454 35.8019C339.001 35.4026 339.461 35.3079 340.908 34.5446C341.471 34.2479 342.391 33.6218 342.792 32.5253C343.014 31.9175 343.195 30.9667 343.14 30.3219C343.072 29.5222 342.846 28.8577 342.352 28.1604C341.768 27.3363 340.904 26.4096 340.148 25.7394C339.121 24.8282 337.778 24.1231 336.781 23.6991C335.655 23.2202 334.031 22.6843 332.77 22.3296C331.628 22.008 329.579 21.4872 328.39 21.2147C327.201 20.9423 324.908 20.5886 322.737 20.3115C321.184 20.1134 319.513 20.0254 317.501 19.9268C315.168 19.8374 313.406 19.8018 311.054 19.8018C309.107 19.7895 307.978 19.7683 306.037 19.8018C303.91 19.8386 302.838 19.9016 300.689 19.9713C299.201 20.0195 298.186 20.0552 296.702 20.1781C294.552 20.3564 292.077 20.541 290.056 20.7469C287.731 20.9838 285.775 21.4571 284.235 21.7379C282.589 22.0382 281.631 22.3881 279.772 22.8461C278.002 23.2822 275.008 24.3962 272.944 25.0219C270.88 25.6476 267.692 26.5358 265.483 27.3304C263.586 28.0577 261.612 28.752 259.458 29.5689C257.045 30.4835 255.964 31.0185 253.478 32.0528C251.437 32.902 250.071 33.5548 248.23 34.3505C246.042 35.2966 244.084 36.2714 242.176 37.1451C240.174 38.0616 237.423 39.4518 236.201 40.0975C235.234 40.6086 232.234 42.4343 229.524 44.0403C227.551 45.3223 224.602 47.259 224.367 47.4131C224.356 47.4204 224.349 47.4257 224.338 47.4334C224.145 47.5711 222.111 49.0264 220.656 50.0627C219.517 50.8675 218.769 51.4112 217.598 52.247C216.289 53.2236 215.746 53.6648 214.176 54.7677C212.218 56.1429 211.542 56.6819 209.499 58.1437C208.179 59.0882 207.769 59.373 205.33 61.1344C203.636 62.4233 203.526 62.498 201.697 63.8281C200.502 64.6977 199.79 65.2003 198.755 65.9192C197.335 66.9056 196.561 67.3811 195.048 68.2985C193.593 69.1813 192.619 69.7217 191.152 70.5785C189.433 71.583 188.522 72.032 186.834 72.9264C185.213 73.7851 184.07 74.2701 182.425 75.0802C180.964 75.7992 180.074 76.2175 178.585 76.8771C176.873 77.6361 176.074 77.9023 174.324 78.5694C171.919 79.4859 170.569 80.0101 168.103 80.7456C166.074 81.3506 164.735 81.5907 162.647 81.9396C160.881 82.2346 159.907 82.2982 158.117 82.3541C156.223 82.4133 154.113 82.2352 152.598 81.9396C151.083 81.644 150.816 81.5902 149.286 81.1532C147.756 80.7161 147.178 80.5082 145.824 79.9197C144.593 79.3846 143.958 79.0052 142.835 78.3334L142.737 78.2747C141.717 77.6647 141.008 77.1565 140.109 76.3801C139.145 75.5489 138.639 75.0763 137.801 74.1192C136.939 73.1352 136.607 72.6859 135.905 71.5819C135.3 70.63 135 69.8896 134.723 69.2369C134.346 68.3505 134.172 67.4833 134.063 66.6751C133.9 65.468 133.838 64.9185 133.838 63.7006C133.838 62.5893 133.937 62.1907 134.077 61.0883C134.18 60.278 134.922 58.2578 135.33 57.407C136.201 55.5907 136.755 54.5813 137.859 52.8961C138.741 51.5487 139.365 50.7443 140.342 49.5695C141.732 47.8991 142.246 47.2825 143.631 45.8467C146.553 42.8164 148.548 40.8563 151.792 38.1743C155.223 35.3382 156.618 34.0282 160.471 31.7981Z" fill="#FEECEC"/>
<path d="M64.6194 383.598C65.4478 383.598 66.1194 384.27 66.1194 385.098V441.9C66.1194 442.729 65.4478 443.4 64.6194 443.4H55.6247C54.7963 443.4 54.1247 442.729 54.1247 441.9V410.105C54.1247 408.429 51.7949 408.015 51.2168 409.587L39.1499 442.418C38.9329 443.008 38.3708 443.4 37.742 443.4H29.3815C28.7534 443.4 28.1918 443.009 27.9743 442.42L15.9075 409.724C15.3277 408.154 13.0002 408.569 13.0002 410.244V441.9C13.0002 442.729 12.3287 443.4 11.5002 443.4H2.41992C1.59149 443.4 0.919922 442.729 0.919922 441.9V385.098C0.919922 384.27 1.59149 383.598 2.41992 383.598H14.5586C15.1701 383.598 15.7204 383.97 15.9494 384.537L32.3297 425.101C32.8367 426.357 34.6164 426.351 35.1151 425.092L51.1791 384.546C51.4057 383.974 51.9585 383.598 52.5736 383.598H64.6194Z" fill="#FEECEC"/>
<path d="M121.695 417.869C121.695 418.739 121.62 419.699 121.47 420.75C121.367 421.466 120.742 421.981 120.019 421.981H88.0442C87.1919 421.981 86.5047 422.692 86.5946 423.539C86.9596 426.981 88.0645 429.575 89.9092 431.32C92.0226 433.319 94.65 434.319 97.7914 434.319C100.59 434.319 102.903 433.633 104.731 432.262C106.293 431.127 107.384 429.657 108.005 427.855C108.234 427.189 108.832 426.693 109.536 426.693H119.284C120.225 426.693 120.936 427.551 120.684 428.457C119.958 431.069 118.753 433.451 117.069 435.604C115.012 438.231 112.356 440.287 109.101 441.772C105.902 443.257 102.332 444 98.3911 444C93.7646 444 89.6522 443.029 86.0538 441.087C82.4554 439.088 79.6566 436.261 77.6575 432.605C75.6584 428.95 74.6589 424.637 74.6589 419.668C74.6589 414.699 75.6584 410.386 77.6575 406.731C79.6566 403.018 82.4554 400.191 86.0538 398.249C89.6522 396.307 93.7646 395.336 98.3911 395.336C103.075 395.336 107.159 396.307 110.643 398.249C114.184 400.191 116.897 402.875 118.782 406.303C120.724 409.672 121.695 413.528 121.695 417.869ZM108.094 416.669C108.896 416.669 109.566 416.036 109.536 415.234C109.42 412.053 108.389 409.59 106.445 407.845C104.274 405.846 101.59 404.846 98.3911 404.846C95.1355 404.846 92.3938 405.846 90.1662 407.845C88.2521 409.563 87.076 411.976 86.638 415.086C86.5176 415.941 87.2099 416.669 88.073 416.669H108.094Z" fill="#FEECEC"/>
<path d="M148.862 395.336C152.861 395.336 156.288 396.278 159.143 398.163C160.539 399.084 162.023 400.926 163.176 402.569C163.768 403.411 165.227 402.998 165.227 401.969V397.436C165.227 396.607 165.898 395.936 166.727 395.936H175.721C176.55 395.936 177.221 396.607 177.221 397.436V441.9C177.221 442.729 176.55 443.4 175.721 443.4H166.727C165.898 443.4 165.227 442.729 165.227 441.9V437.298C165.227 436.267 163.766 435.856 163.178 436.702C162.024 438.359 160.54 440.223 159.143 441.173C156.288 443.058 152.861 444 148.862 444C144.864 444 141.266 443.029 138.067 441.087C134.869 439.145 132.355 436.346 130.528 432.691C128.757 428.978 127.872 424.637 127.872 419.668C127.872 414.699 128.757 410.386 130.528 406.731C132.355 403.018 134.869 400.191 138.067 398.249C141.266 396.307 144.864 395.336 148.862 395.336ZM152.632 405.874C148.862 405.874 145.835 407.102 143.55 409.558C141.266 412.014 140.123 415.384 140.123 419.668C140.123 423.952 141.266 427.322 143.55 429.778C145.835 432.177 148.862 433.376 152.632 433.376C156.288 433.376 159.286 432.148 161.628 429.692C164.027 427.179 165.227 423.838 165.227 419.668C165.227 415.441 164.027 412.1 161.628 409.644C159.286 407.131 156.288 405.874 152.632 405.874Z" fill="#FEECEC"/>
<path d="M198.749 380C199.578 380 200.249 380.672 200.249 381.5V441.9C200.249 442.729 199.578 443.4 198.749 443.4H189.669C188.84 443.4 188.169 442.729 188.169 441.9V381.5C188.169 380.672 188.84 380 189.669 380H198.749Z" fill="#FEECEC"/>
<path d="M271.564 443.4C271.126 443.4 270.71 443.209 270.425 442.876L263.233 434.486C262.5 433.63 261.13 433.865 260.625 434.872C260.555 435.011 260.488 435.141 260.422 435.261C259.394 437.888 257.595 440.002 255.024 441.601C252.454 443.2 249.455 444 246.028 444C242.202 444 238.832 443.2 235.919 441.601C233.063 440.002 230.864 437.831 229.322 435.09C227.779 432.291 227.008 429.121 227.008 425.58C227.008 422.095 227.665 419.04 228.979 416.412C230.35 413.785 232.177 411.757 234.462 410.329C236.29 409.17 238.274 408.429 240.414 408.105C241.217 407.983 241.681 407.064 241.23 406.388C240.088 404.789 239.203 403.218 238.575 401.676C237.946 400.077 237.632 398.306 237.632 396.364C237.632 393.908 238.26 391.623 239.517 389.51C240.831 387.34 242.744 385.597 245.257 384.284C247.828 382.97 250.883 382.313 254.425 382.313C259.508 382.313 263.421 383.456 266.162 385.74C268.961 388.025 270.76 390.967 271.56 394.565C272.131 396.278 272.417 398.106 272.417 400.048L272.406 400.255C272.364 401.052 271.706 401.676 270.908 401.676H262.607C261.779 401.676 261.116 401.004 261.08 400.176C261.056 399.632 261.018 399.207 260.964 398.904C260.947 398.81 260.935 398.715 260.931 398.619C260.852 396.633 260.282 395.111 259.222 394.051C258.137 392.909 256.624 392.337 254.682 392.337C252.911 392.337 251.512 392.851 250.484 393.88C249.455 394.908 248.941 396.164 248.941 397.649C248.941 398.963 249.198 400.105 249.712 401.076C250.226 402.047 251.083 403.247 252.283 404.675L281.108 440.967C281.889 441.95 281.189 443.4 279.934 443.4H271.564ZM246.114 433.89C248.57 433.89 250.569 433.148 252.111 431.663C253.711 430.12 254.51 428.15 254.51 425.751C254.51 423.238 253.596 421.153 251.769 419.497C249.998 417.84 247.885 417.012 245.429 417.012C243.087 417.012 241.145 417.726 239.603 419.154C238.118 420.582 237.375 422.61 237.375 425.237C237.375 427.864 238.203 429.978 239.86 431.577C241.573 433.119 243.658 433.89 246.114 433.89Z" fill="#FEECEC"/>
<path d="M349.116 426.865C349.116 429.949 348.345 432.805 346.803 435.432C345.261 438.003 342.976 440.087 339.949 441.687C336.922 443.229 333.237 444 328.897 444C324.613 444 320.786 443.286 317.416 441.858C314.046 440.373 311.333 438.26 309.277 435.518C307.577 433.187 306.496 430.525 306.035 427.533C305.902 426.669 306.597 425.922 307.471 425.922H317.365C318.127 425.922 318.756 426.496 318.928 427.238C319.367 429.122 320.263 430.74 321.614 432.091C323.328 433.69 325.584 434.49 328.382 434.49C330.896 434.49 332.809 433.833 334.123 432.519C335.494 431.149 336.179 429.407 336.179 427.293C336.179 425.408 335.636 423.866 334.551 422.667C333.466 421.41 332.095 420.411 330.439 419.668C328.782 418.925 326.498 418.069 323.585 417.098C319.815 415.841 316.731 414.613 314.332 413.414C311.933 412.157 309.876 410.358 308.163 408.016C306.507 405.674 305.678 402.618 305.678 398.849C305.678 393.651 307.535 389.567 311.247 386.597C315.017 383.57 319.986 382.056 326.155 382.056C332.552 382.056 337.635 383.598 341.405 386.683C344.816 389.431 346.91 392.996 347.69 397.378C347.845 398.252 347.147 399.02 346.259 399.02H336.176C335.437 399.02 334.822 398.479 334.62 397.768C334.164 396.159 333.341 394.805 332.152 393.708C330.667 392.28 328.639 391.566 326.069 391.566C323.842 391.566 322.042 392.166 320.672 393.365C319.301 394.508 318.615 396.193 318.615 398.42C318.615 400.191 319.129 401.676 320.158 402.876C321.243 404.018 322.585 404.96 324.184 405.703C325.841 406.445 328.068 407.274 330.867 408.187C334.751 409.558 337.892 410.843 340.291 412.043C342.747 413.242 344.832 415.041 346.546 417.44C348.259 419.839 349.116 422.981 349.116 426.865Z" fill="#FEECEC"/>
<path d="M402.652 417.869C402.652 418.739 402.577 419.699 402.427 420.75C402.324 421.466 401.699 421.981 400.976 421.981H369.001C368.149 421.981 367.462 422.692 367.552 423.539C367.917 426.981 369.022 429.575 370.866 431.32C372.98 433.319 375.607 434.319 378.749 434.319C381.547 434.319 383.861 433.633 385.688 432.262C387.25 431.127 388.341 429.657 388.962 427.855C389.191 427.189 389.789 426.693 390.493 426.693H400.241C401.182 426.693 401.893 427.551 401.642 428.457C400.915 431.069 399.71 433.451 398.026 435.604C395.969 438.231 393.314 440.287 390.058 441.772C386.859 443.257 383.289 444 379.348 444C374.722 444 370.609 443.029 367.011 441.087C363.413 439.088 360.614 436.261 358.615 432.605C356.616 428.95 355.616 424.637 355.616 419.668C355.616 414.699 356.616 410.386 358.615 406.731C360.614 403.018 363.413 400.191 367.011 398.249C370.609 396.307 374.722 395.336 379.348 395.336C384.032 395.336 388.116 396.307 391.6 398.249C395.141 400.191 397.854 402.875 399.739 406.303C401.681 409.672 402.652 413.528 402.652 417.869ZM389.051 416.669C389.854 416.669 390.523 416.036 390.493 415.234C390.377 412.053 389.346 409.59 387.402 407.845C385.231 405.846 382.547 404.846 379.348 404.846C376.093 404.846 373.351 405.846 371.123 407.845C369.209 409.563 368.033 411.976 367.595 415.086C367.475 415.941 368.167 416.669 369.03 416.669H389.051Z" fill="#FEECEC"/>
<path d="M429.82 395.336C433.818 395.336 437.245 396.278 440.101 398.163C441.366 398.999 442.469 399.963 443.409 401.056C444.135 401.9 446.184 401.387 446.184 400.274V397.436C446.184 396.607 446.855 395.936 447.684 395.936H456.678C457.507 395.936 458.178 396.607 458.178 397.436V441.9C458.178 442.729 457.507 443.4 456.678 443.4H447.684C446.855 443.4 446.184 442.729 446.184 441.9V438.977C446.184 437.863 444.143 437.355 443.423 438.204C442.48 439.318 441.372 440.308 440.101 441.173C437.245 443.058 433.818 444 429.82 444C425.821 444 422.223 443.029 419.024 441.087C415.826 439.145 413.313 436.346 411.485 432.691C409.714 428.978 408.829 424.637 408.829 419.668C408.829 414.699 409.714 410.386 411.485 406.731C413.313 403.018 415.826 400.191 419.024 398.249C422.223 396.307 425.821 395.336 429.82 395.336ZM433.589 405.874C429.82 405.874 426.792 407.102 424.508 409.558C422.223 412.014 421.081 415.384 421.081 419.668C421.081 423.952 422.223 427.322 424.508 429.778C426.792 432.177 429.82 433.376 433.589 433.376C437.245 433.376 440.243 432.148 442.585 429.692C444.984 427.179 446.184 423.838 446.184 419.668C446.184 415.441 444.984 412.1 442.585 409.644C440.243 407.131 437.245 405.874 433.589 405.874Z" fill="#FEECEC"/>
<path d="M492.986 433.033C493.815 433.033 494.486 433.705 494.486 434.533V441.9C494.486 442.729 493.815 443.4 492.986 443.4H488.146C482.834 443.4 478.75 442.115 475.895 439.545C473.096 436.975 471.696 432.691 471.696 426.693V407.631C471.696 406.803 471.025 406.131 470.196 406.131H466.599C465.771 406.131 465.099 405.46 465.099 404.631V397.436C465.099 396.607 465.771 395.936 466.599 395.936H470.196C471.025 395.936 471.696 395.264 471.696 394.436V385.698C471.696 384.87 472.368 384.198 473.196 384.198H482.277C483.105 384.198 483.777 384.87 483.777 385.698V394.436C483.777 395.264 484.448 395.936 485.277 395.936H492.901C493.729 395.936 494.401 396.607 494.401 397.436V404.631C494.401 405.46 493.729 406.131 492.901 406.131H485.277C484.448 406.131 483.777 406.803 483.777 407.631V426.865C483.777 429.149 484.234 430.749 485.148 431.663C486.061 432.577 487.604 433.033 489.774 433.033H492.986Z" fill="#FEECEC"/>
</svg>
